<svg width="86" height="17" viewBox="0 0 86 17" fill="none" xmlns="http://www.w3.org/2000/svg">
<path d="M4.888 16.182C4.03867 16.182 3.302 16.052 2.678 15.792C2.054 15.532 1.57733 15.0727 1.248 14.414C0.936 13.7553 0.78 12.828 0.78 11.632V10.748C1.196 10.748 1.62067 10.748 2.054 10.748C2.48733 10.748 2.912 10.748 3.328 10.748V11.84C3.328 12.568 3.39733 13.1313 3.536 13.53C3.67467 13.9287 3.86533 14.206 4.108 14.362C4.35067 14.5007 4.628 14.57 4.94 14.57C5.44267 14.57 5.84133 14.4053 6.136 14.076C6.448 13.7293 6.604 13.088 6.604 12.152C6.604 11.4587 6.5 10.9387 6.292 10.592C6.084 10.2453 5.75467 9.968 5.304 9.76C4.87067 9.53467 4.30733 9.28333 3.614 9.006C3.042 8.746 2.548 8.44267 2.132 8.096C1.716 7.74933 1.404 7.30733 1.196 6.77C0.988 6.23267 0.884 5.56533 0.884 4.768C0.884 3.79733 1.00533 3.00867 1.248 2.402C1.508 1.778 1.94133 1.32733 2.548 1.05C3.15467 0.755333 3.96933 0.608 4.992 0.608C6.30933 0.608 7.31467 0.911333 8.008 1.518C8.70133 2.10733 9.048 2.974 9.048 4.118V5.912C8.64933 5.912 8.242 5.912 7.826 5.912C7.42733 5.912 7.02 5.912 6.604 5.912V4.846C6.604 4.04867 6.474 3.47667 6.214 3.13C5.97133 2.766 5.57267 2.584 5.018 2.584C4.446 2.584 4.03 2.75733 3.77 3.104C3.52733 3.43333 3.406 3.962 3.406 4.69C3.406 5.314 3.52733 5.79933 3.77 6.146C4.01267 6.47533 4.32467 6.73533 4.706 6.926C5.10467 7.11667 5.512 7.29 5.928 7.446C6.708 7.74067 7.34067 8.044 7.826 8.356C8.31133 8.668 8.66667 9.084 8.892 9.604C9.11733 10.124 9.23 10.8607 9.23 11.814C9.23 12.906 9.048 13.7727 8.684 14.414C8.33733 15.038 7.83467 15.4887 7.176 15.766C6.53467 16.0433 5.772 16.182 4.888 16.182ZM15.8285 16.312C15.2392 16.312 14.6932 16.2687 14.1905 16.182C13.6878 16.0953 13.2545 15.922 12.8905 15.662C12.5265 15.402 12.2405 15.012 12.0325 14.492C11.8245 13.972 11.7205 13.27 11.7205 12.386V0.633999H14.2165V13.036C14.2165 13.504 14.2858 13.868 14.4245 14.128C14.5805 14.3707 14.7798 14.5353 15.0225 14.622C15.2652 14.7087 15.5338 14.752 15.8285 14.752C16.1232 14.752 16.3918 14.7087 16.6345 14.622C16.8772 14.5353 17.0678 14.3707 17.2065 14.128C17.3625 13.868 17.4405 13.504 17.4405 13.036V0.633999H19.9105V12.36C19.9105 13.244 19.8065 13.9547 19.5985 14.492C19.4078 15.012 19.1305 15.402 18.7665 15.662C18.4025 15.922 17.9692 16.0953 17.4665 16.182C16.9638 16.2687 16.4178 16.312 15.8285 16.312ZM22.9826 16V0.633999H28.1826C29.1532 0.633999 29.8986 0.850666 30.4186 1.284C30.9386 1.71733 31.1986 2.35867 31.1986 3.208V5.938C31.1986 6.59667 31.1119 7.212 30.9386 7.784C30.7826 8.33867 30.4706 8.78933 30.0026 9.136C29.5519 9.48267 28.8932 9.656 28.0266 9.656H25.5826V16H22.9826ZM25.5826 8.252H27.1686C27.6886 8.252 28.0786 8.05267 28.3386 7.654C28.5986 7.238 28.7286 6.57067 28.7286 5.652V4.274C28.7286 3.45933 28.6159 2.87867 28.3906 2.532C28.1652 2.18533 27.8532 2.012 27.4546 2.012H25.5826V8.252ZM33.6588 16V0.633999H40.5748V2.402H36.2588V7.056H39.8208V9.006H36.2588V14.284H40.5748V16H33.6588ZM42.9386 16V0.633999H48.2426C49.2133 0.633999 49.9586 0.850666 50.4786 1.284C51.0159 1.71733 51.2846 2.35867 51.2846 3.208V5.652C51.2846 6.50133 51.0506 7.19467 50.5826 7.732C50.1146 8.252 49.4213 8.538 48.5026 8.59C49.0919 8.642 49.5079 8.83267 49.7506 9.162C50.0106 9.49133 50.2446 10.0027 50.4526 10.696L51.9346 16H49.1786L47.9566 10.878C47.8353 10.4447 47.6966 10.0633 47.5406 9.734C47.3846 9.40467 47.1333 9.24 46.7866 9.24H45.5126V16H42.9386ZM45.5126 7.498H47.1766C47.7833 7.498 48.2079 7.342 48.4506 7.03C48.7106 6.718 48.8406 6.24133 48.8406 5.6V3.65C48.8406 3.078 48.7193 2.662 48.4766 2.402C48.2513 2.142 47.8959 2.012 47.4106 2.012H45.5126V7.498ZM57.4984 16.286C56.9091 16.286 56.3544 16.1907 55.8344 16C55.3144 15.8267 54.8897 15.4713 54.5604 14.934C54.2484 14.3793 54.0924 13.556 54.0924 12.464V3.884C54.0924 2.948 54.2657 2.23733 54.6124 1.752C54.9591 1.24933 55.4444 0.911333 56.0684 0.738C56.6924 0.547332 57.4117 0.451999 58.2264 0.451999C59.0411 0.451999 59.7604 0.547332 60.3844 0.738C61.0084 0.928666 61.4937 1.27533 61.8404 1.778C62.2044 2.26333 62.3864 2.96533 62.3864 3.884V5.964H59.9684V3.78C59.9684 3.26 59.8904 2.87 59.7344 2.61C59.5957 2.35 59.3964 2.17667 59.1364 2.09C58.8937 2.00333 58.5991 1.96 58.2524 1.96C57.9404 1.96 57.6544 2.00333 57.3944 2.09C57.1344 2.17667 56.9264 2.35 56.7704 2.61C56.6317 2.87 56.5624 3.26 56.5624 3.78V13.01C56.5624 13.53 56.6317 13.92 56.7704 14.18C56.9264 14.44 57.1344 14.6133 57.3944 14.7C57.6544 14.7867 57.9404 14.83 58.2524 14.83C58.7551 14.83 59.1624 14.6827 59.4744 14.388C59.8037 14.076 59.9684 13.6167 59.9684 13.01V9.89H58.4344V8.46H62.3864V16H60.5144L60.3844 14.7C60.3497 14.7693 60.3064 14.8473 60.2544 14.934C60.2024 15.0033 60.1591 15.064 60.1244 15.116C59.9164 15.428 59.6044 15.7053 59.1884 15.948C58.7897 16.1733 58.2264 16.286 57.4984 16.286ZM67.1025 16V9.396L64.2425 0.633999H66.7125L68.3245 5.886L68.4545 6.692L68.6105 5.886L70.3005 0.633999H72.6145L69.5985 9.526V16H67.1025ZM74.7134 16V0.633999H77.7814L80.3554 11.554L82.9554 0.633999H85.9974V16H83.7874V4.144L81.2134 16H79.4974L76.9234 4.144V16H74.7134Z" fill="white"/>
</svg>
